<svg version="1.2" xmlns="http://www.w3.org/2000/svg" viewBox="0 0 130 100" width="250" height="192">
	<style>
		.s0 { fill: #000000 } 
	</style>
	<path id="next TBR" class="s0" aria-label="next
TBR"  d="m14.9 22.8v19.2h-8.5v-33.2h8.1l0.1 8.3h-0.5q1.2-4.2 3.8-6.4 2.5-2.3 6.6-2.3 3.3 0 5.7 1.5 2.5 1.5 3.8 4.3 1.4 2.8 1.4 6.7v21.1h-8.5v-19.6q0-3.1-1.6-4.8-1.5-1.8-4.2-1.8-1.8 0-3.2 0.9-1.4 0.8-2.2 2.4-0.8 1.5-0.8 3.7zm-1.5 0v19.2h-8.5v-33.2h8l0.2 8.3h-0.6q1.3-4.2 3.8-6.4 2.6-2.3 6.6-2.3 3.3 0 5.8 1.5 2.4 1.5 3.8 4.3 1.4 2.8 1.4 6.7v21.1h-8.6v-19.6q0-3.1-1.5-4.8-1.5-1.8-4.2-1.8-1.8 0-3.2 0.9-1.4 0.8-2.2 2.4-0.8 1.5-0.8 3.7zm44.4 19.8q-4.9 0-8.4-2-3.5-2.1-5.5-5.9-1.8-3.9-1.8-9.1 0-5.1 1.8-9 1.9-3.9 5.4-6 3.4-2.2 8.1-2.2 3.1 0 5.8 1 2.7 1.1 4.7 3.2 2.1 2 3.2 5.2 1.2 3.2 1.2 7.4v2.5h-26.7v-5.6h22.5l-4 1.5q0-2.6-0.8-4.5-0.7-1.9-2.2-2.9-1.5-1.1-3.7-1.1-2.2 0-3.8 1.1-1.5 1-2.3 2.9-0.8 1.8-0.8 4.1v4q0 2.9 0.9 4.8 1 2 2.6 3 1.7 0.9 3.9 0.9 1.5 0 2.7-0.4 1.3-0.4 2.1-1.3 0.9-0.9 1.4-2.2l7.7 1.5q-0.8 2.8-2.7 4.8-1.9 2.1-4.8 3.2-2.8 1.1-6.5 1.1zm-1.6 0q-4.8 0-8.4-2-3.5-2.1-5.4-5.9-1.9-3.9-1.9-9.1 0-5.1 1.9-9 1.9-3.9 5.3-6 3.5-2.2 8.1-2.2 3.1 0 5.8 1 2.7 1.1 4.8 3.2 2 2 3.2 5.2 1.1 3.2 1.1 7.4v2.5h-26.7v-5.6h22.6l-4 1.5q0-2.6-0.8-4.5-0.7-1.9-2.2-2.9-1.5-1.1-3.7-1.1-2.2 0-3.8 1.1-1.5 1-2.3 2.9-0.8 1.8-0.8 4.1v4q0 2.9 0.9 4.8 0.9 2 2.6 3 1.7 0.9 3.9 0.9 1.5 0 2.7-0.4 1.2-0.4 2.1-1.3 0.9-0.9 1.3-2.2l7.7 1.5q-0.7 2.8-2.6 4.8-1.9 2.1-4.8 3.2-2.9 1.1-6.6 1.1zm26.8-0.6h-9l12.3-20.5v6.9l-11.7-19.6h9.2l2.9 5.2q1.3 2.6 2.4 5.1 1.1 2.5 2.3 4.9h-3.3q1.2-2.3 2.2-4.9 1.1-2.5 2.6-5.1l3-5.2h9l-11.9 19.7v-6.8l12.4 20.3h-9.2l-3.5-6.2q-1.4-2.6-2.6-5.1-1.1-2.5-2.2-4.8h3.2q-1.1 2.3-2.2 4.8-1 2.5-2.4 5.1zm-1.5 0h-9.1l12.3-20.5v6.9l-11.6-19.6h9.2l2.8 5.2q1.4 2.6 2.5 5.1 1.1 2.5 2.2 4.9h-3.2q1.2-2.4 2.2-4.9 1.1-2.5 2.5-5.1l3-5.2h9.1l-11.9 19.7v-6.9l12.3 20.4h-9.1l-3.6-6.3q-1.4-2.5-2.5-5.1-1.1-2.5-2.3-4.8h3.3q-1.1 2.3-2.2 4.8-1 2.6-2.4 5.1zm26.9-33.2h18.8v6.8h-18.8zm4.3 24.3v-32.2h8.6v31.4q0 1.6 0.6 2.3 0.7 0.8 2.3 0.8 0.5 0 1.3-0.2 0.9-0.1 1.4-0.2l1.2 6.7q-1.4 0.4-2.9 0.6-1.3 0.1-2.6 0.1-4.8 0-7.4-2.4-2.5-2.4-2.5-6.9zm-5.9-24.3h18.9v6.8h-18.9zm4.4 24.2v-32.1h8.5v31.4q0 1.5 0.7 2.3 0.7 0.7 2.2 0.7 0.5 0 1.4-0.1 0.9-0.1 1.3-0.2l1.2 6.6q-1.4 0.5-2.8 0.7-1.4 0.1-2.7 0.1-4.8 0-7.3-2.4-2.5-2.4-2.5-7zm-91.8 22.8h-14.2v-8.2h37.8v8.2h-14.1v40.2h-9.5zm-1.7 0h-14.2v-8.3h37.9v8.3h-14.2v40.1h-9.5zm51.9 40.2h-19.6v-48.4h18.4q5.1 0 8.5 1.6 3.4 1.6 5.1 4.4 1.7 2.8 1.7 6.4 0 2.9-1.1 5-1 2.1-2.9 3.5-1.9 1.3-4.3 1.9v0.5q2.6 0.1 4.9 1.6 2.3 1.4 3.8 4 1.4 2.6 1.4 6.2 0 3.8-1.8 6.8-1.8 3-5.3 4.8-3.5 1.7-8.8 1.7zm-10.1-21.3v13.1h8.2q4.2 0 6.1-1.7 2-1.6 2-4.4 0-2-1-3.6-0.9-1.6-2.7-2.5-1.7-0.9-4.1-0.9zm0-19v12.2h7.5q2 0 3.6-0.7 1.6-0.8 2.5-2.2 1-1.4 1-3.4 0-2.6-1.8-4.3-1.8-1.6-5.1-1.6zm8.4 40.3h-19.6v-48.4h18.4q5.1 0 8.5 1.6 3.4 1.6 5.1 4.4 1.7 2.8 1.7 6.4 0 2.9-1.2 5-1 2.1-2.9 3.5-1.9 1.3-4.3 1.9v0.5q2.7 0.1 4.9 1.6 2.4 1.4 3.8 4 1.5 2.6 1.5 6.2 0 3.8-1.8 6.8-1.8 3-5.4 4.8-3.5 1.7-8.7 1.7zm-10.1-21.3v13.1h8.2q4.2 0 6-1.7 2-1.6 2-4.4 0-2-1-3.6-0.9-1.6-2.7-2.5-1.7-0.9-4.1-0.9zm0-19v12.2h7.5q2 0 3.6-0.7 1.7-0.8 2.6-2.2 0.9-1.4 0.9-3.4 0-2.6-1.8-4.3-1.8-1.6-5.1-1.6zm43.7 40.3h-9.5v-48.4h18q5.3 0 9 2 3.7 1.9 5.7 5.5 1.9 3.5 1.9 8.2 0 4.8-2 8.3-1.9 3.4-5.7 5.3-3.7 1.8-9.1 1.8h-12.2v-8h10.7q2.9 0 4.8-0.8 1.9-0.9 2.8-2.5 0.9-1.6 0.9-4.1 0-2.4-0.9-4.1-0.9-1.7-2.8-2.5-1.9-0.9-4.8-0.9h-6.8zm26.8 0h-10.6l-11.2-22h10.3zm-28.5 0h-9.5v-48.4h18q5.3 0 9 2 3.7 1.9 5.7 5.4 1.9 3.6 1.9 8.3 0 4.8-2 8.3-1.9 3.4-5.7 5.3-3.7 1.8-9.1 1.8h-12.2v-8h10.7q2.9 0 4.8-0.8 1.9-0.9 2.8-2.5 0.9-1.7 0.9-4.1 0-2.4-0.9-4.1-0.9-1.7-2.8-2.6-1.9-0.8-4.8-0.8h-6.8zm26.8 0h-10.5l-11.3-22.1h10.3z"/>
</svg>